<svg xmlns="http://www.w3.org/2000/svg" width="512" height="512" viewBox="0 0 512 512"><path fill="#454646" d="M146.355 373.76h55.11l33.96-71.765-27.618-56.985zm197.177-49l-88.765-186.52h-70.45l-.042 46.08h35.845a5.12 5.12 0 0 1 4.62 2.91l89.177 186.53h54.725v-46.08h-20.487a5.116 5.116 0 0 1-4.623-2.92z"/><path fill="#454646" d="M64 64v384h384V64H64zm181.73 240.16l-36.395 76.91a5.115 5.115 0 0 1-4.628 2.93h-66.47c-1.757 0-3.392-.9-4.33-2.39a5.116 5.116 0 0 1-.29-4.935l69.535-145.685a5.12 5.12 0 0 1 4.605-2.915h.015a5.118 5.118 0 0 1 4.608 2.885l33.33 68.775a5.13 5.13 0 0 1 .02 4.425zm133.152 74.72c0 2.83-2.292 5.12-5.12 5.12H310.69a5.12 5.12 0 0 1-4.62-2.91l-89.178-186.53H179.15a5.126 5.126 0 0 1-3.623-1.5 5.124 5.124 0 0 1-1.497-3.625l.052-56.32a5.12 5.12 0 0 1 5.12-5.115H258a5.116 5.116 0 0 1 4.622 2.92l88.765 186.52h22.375c2.828 0 5.12 2.29 5.12 5.12v56.32z"/></svg>